<svg xmlns="http://www.w3.org/2000/svg" height="32" width="32" viewBox="0 0 32 32"><path fill="#7fe6c0" d="M32 16A16 16 0 0116.193 32 16 16 0 01.005 16.386 16 16 0 0115.42.011a16 16 0 0116.561 15.216"/><path fill="#fff" d="M24.01 19.38c-1.23 0-2.42-.2-3.53-.56a.977.977 0 00-1.01.24l-1.57 1.97c-2.83-1.35-5.48-3.9-6.89-6.83l1.95-1.66c.27-.28.35-.67.24-1.02-.37-1.11-.56-2.3-.56-3.53 0-.54-.45-.99-.99-.99H8.19C7.65 7 7 7.24 7 7.99 7 17.28 14.73 25 24.01 25c.71 0 .99-.63.99-1.18v-3.45c0-.54-.45-.99-.99-.99z"/></svg>
