<svg viewBox="0 0 32 32" xmlns="http://www.w3.org/2000/svg"><path d="M32 16a16 16 0 01-15.807 15.999A16 16 0 01.005 16.386 16 16 0 0115.421.01a16 16 0 0116.561 15.217" fill="gray"/><g fill="#fff"><path d="M13 16c0 1.66 1.34 3 3 3s3-1.34 3-3-1.34-3-3-3-3 1.34-3 3z"/><path d="M12 14v-2H9.09c1.38-2.39 3.96-4 6.91-4 3.72 0 6.85 2.56 7.74 6h2.06c-.93-4.56-4.96-8-9.8-8-3.27 0-6.18 1.58-8 4.01V8H6v6zM20 18v2h2.91c-1.38 2.39-3.96 4-6.91 4-3.72 0-6.85-2.56-7.74-6H6.2c.93 4.56 4.96 8 9.8 8 3.27 0 6.18-1.58 8-4.01V24h2v-6z"/></g></svg>