<svg xmlns="http://www.w3.org/2000/svg" viewBox="0 0 32 32"><path fill="#e50026" d="M32 16a16 16 0 01-15.807 15.999A16 16 0 01.005 16.386 16 16 0 0115.421.01a16 16 0 0116.561 15.217"/><path fill="#fff" d="M16 13.57c-1.6 0-3.15.25-4.6.72v3.1c0 .39-.23.74-.56.9-.98.49-1.87 1.12-2.66 1.85-.18.18-.43.28-.7.28-.28 0-.53-.11-.71-.29l-2.48-2.48a.956.956 0 01-.29-.7c0-.28.11-.53.29-.71 3.05-2.89 7.17-4.67 11.71-4.67 4.54 0 8.66 1.78 11.71 4.67.18.18.29.43.29.71 0 .28-.11.53-.29.71l-2.48 2.48c-.18.18-.43.29-.71.29-.27 0-.52-.11-.7-.28a11.27 11.27 0 00-2.67-1.85.996.996 0 01-.56-.9v-3.1c-1.44-.48-2.99-.73-4.59-.73z"/></svg>
