<svg viewBox="0 0 32 32" xmlns="http://www.w3.org/2000/svg"><path d="M32 16a16 16 0 01-15.807 15.999A16 16 0 01.005 16.386 16 16 0 0115.421.01a16 16 0 0116.561 15.217" fill="gray"/><path d="M23 15.5h-1.7c0 .74-.16 1.43-.43 2.05l1.23 1.23c.56-.98.9-2.09.9-3.28zm-4.02.17c0-.06.02-.11.02-.17v-6c0-1.66-1.34-3-3-3s-3 1.34-3 3v.18zM8.27 7.5L7 8.77l6.01 6.01v.72c0 1.66 1.33 3 2.99 3 .22 0 .44-.03.65-.08l1.66 1.66c-.71.33-1.5.52-2.31.52-2.76 0-5.3-2.1-5.3-5.1H9c0 3.41 2.72 6.23 6 6.72v3.28h2v-3.28c.91-.13 1.77-.45 2.54-.9l4.19 4.18L25 24.23z" fill="#fff"/></svg>